<svg xmlns="http://www.w3.org/2000/svg"  viewBox="0 0 64 64" width="64px" height="64px" baseProfile="basic"><path fill="#fd3c4f" d="M25,14c0-2.664,3.325-6.881,5.391-9.244c0.853-0.976,2.364-0.976,3.217,0	C35.675,7.119,39,11.336,39,14c0,3.866-3.134,7-7,7S25,17.866,25,14z"/><path fill="#fff" d="M35.064,6.497c-0.513-0.642-1.013-1.236-1.455-1.742c-0.853-0.976-2.364-0.976-3.217,0	C28.325,7.119,25,11.336,25,14c0,1.792,0.679,3.421,1.786,4.659c1.835-0.704,3.154-2.449,3.212-4.518	c0.14-0.566,1.106-2.606,4.157-6.094C34.566,7.578,34.859,7.049,35.064,6.497z" opacity=".3"/><path fill="#ffce29" d="M40,48.258H24V21c0-1.105,0.895-2,2-2h12c1.105,0,2,0.895,2,2V48.258z"/><path d="M35,27v12c0,2.762,2.238,5,5,5V22C37.238,22,35,24.238,35,27z" opacity=".15"/><ellipse cx="32" cy="61" opacity=".3" rx="23" ry="3"/><path fill="none" stroke="#fff" stroke-linecap="round" stroke-linejoin="round" stroke-miterlimit="10" stroke-width="3" d="M29.344,12.006c0.443-0.771,1.097-1.757,2.04-2.965"/><path fill="#98c900" d="M30,40.219c0-1.047-1.257-1.591-2.039-0.882c-1.755,1.589-4.563,3.258-8.108,2.391	c-2.137-0.523-3.747-2.458-4.773-4.12c-0.532-0.862-1.845-0.772-2.248,0.155c-0.957,2.2-2.782,5.227-6.053,7.196	c-0.916,0.552-1.046,1.775-0.267,2.504c2.437,2.279,3.478,5.033,3.916,7.154c0.258,1.251,1.76,1.774,2.782,0.989	c1.67-1.283,4.091-2.602,6.985-2.602c3.218,0,5.967,1.967,7.728,3.648c0.78,0.744,2.079,0.2,2.079-0.87V40.219z"/><path fill="#548500" d="M30,47.807v-7.588c0-1.047-1.257-1.591-2.039-0.882c-1.755,1.589-4.563,3.258-8.108,2.391	c-2.137-0.523-3.747-2.458-4.773-4.12c-0.532-0.862-1.845-0.772-2.248,0.155c-0.957,2.2-2.782,5.227-6.053,7.196	c-0.438,0.263-0.69,0.681-0.755,1.124L30,47.807z"/><path fill="#98c900" d="M34,40.219c0-1.047,1.257-1.591,2.039-0.882c1.755,1.589,4.563,3.258,8.108,2.391	c2.137-0.523,3.747-2.458,4.773-4.12c0.532-0.862,1.845-0.772,2.248,0.155c0.957,2.2,2.782,5.227,6.053,7.196	c0.916,0.552,1.046,1.775,0.267,2.504c-2.437,2.279-3.478,5.033-3.916,7.154c-0.258,1.251-1.76,1.774-2.782,0.989	c-1.67-1.283-4.091-2.602-6.985-2.602c-3.218,0-5.967,1.967-7.728,3.648c-0.78,0.744-2.079,0.2-2.079-0.87V40.219z"/><path fill="#548500" d="M34,47.807v-7.588c0-1.047,1.257-1.591,2.039-0.882c1.755,1.589,4.563,3.258,8.108,2.391	c2.137-0.523,3.747-2.458,4.773-4.12c0.532-0.862,1.845-0.772,2.248,0.155c0.957,2.2,2.782,5.227,6.053,7.196	c0.438,0.263,0.69,0.681,0.755,1.124L34,47.807z"/><circle cx="36" cy="49" r="4" fill="#fd3c4f"/><circle cx="28" cy="49" r="4" fill="#fd3c4f"/><circle cx="32" cy="43" r="4" fill="#fd3c4f"/><rect width="4" height="4" x="30" y="45.006" fill="#fd3c4f"/></svg>